<?xml version="1.0" standalone="no"?>
<!DOCTYPE svg PUBLIC "-//W3C//DTD SVG 20010904//EN"
 "http://www.w3.org/TR/2001/REC-SVG-20010904/DTD/svg10.dtd">
<svg version="1.0" xmlns="http://www.w3.org/2000/svg"
 width="312.000000pt" height="312.000000pt" viewBox="0 0 312.000000 312.000000"
 preserveAspectRatio="xMidYMid meet">

<g transform="translate(0.000000,312.000000) scale(0.100000,-0.100000)"
fill="#000000" stroke="none">
<path d="M1471 2759 c-49 -33 -95 -67 -102 -75 -15 -19 -2 -34 58 -65 26 -13
148 -90 272 -171 160 -105 227 -144 233 -135 11 17 10 221 -2 251 -6 18 -60
59 -170 131 -88 57 -169 109 -179 115 -16 8 -35 0 -110 -51z"/>
<path d="M2117 2708 c-14 -11 -17 -46 -23 -260 -6 -200 -5 -250 6 -263 8 -9
67 -53 132 -97 66 -44 126 -87 133 -95 12 -12 15 -61 15 -282 l0 -267 28 -31
c32 -37 193 -173 204 -173 12 0 10 848 -2 871 -6 10 -71 60 -145 109 -74 50
-136 91 -136 93 -1 1 -4 89 -8 195 -5 155 -9 195 -21 202 -22 14 -163 12 -183
-2z"/>
<path d="M1125 2516 c-28 -19 -173 -114 -323 -211 -150 -98 -277 -185 -282
-194 -12 -24 -12 -269 1 -276 5 -4 56 26 112 66 56 40 158 111 227 159 69 47
157 109 195 137 39 28 129 92 200 143 72 51 131 98 133 105 4 16 -159 105
-191 105 -13 0 -45 -15 -72 -34z"/>
<path d="M1450 1804 c-64 -30 -124 -83 -152 -137 -47 -93 -42 -232 12 -320 16
-26 30 -55 30 -64 0 -20 -48 -202 -105 -398 -54 -186 -78 -291 -71 -310 4 -10
21 -15 55 -15 49 0 50 1 61 38 5 20 35 134 66 252 31 118 71 274 90 345 18 72
34 133 34 137 0 4 -16 24 -36 45 -20 21 -43 52 -50 70 -20 46 -17 122 5 163
23 45 91 97 137 106 78 14 180 -42 215 -120 34 -76 18 -150 -48 -218 -33 -34
-35 -40 -29 -80 3 -24 18 -83 31 -133 14 -49 40 -155 60 -235 43 -178 92 -351
103 -362 5 -5 177 -7 383 -6 l374 3 3 234 2 235 -27 29 c-46 48 -190 167 -202
167 -8 0 -11 -58 -11 -198 0 -141 -3 -201 -12 -210 -9 -9 -74 -12 -230 -12
-215 0 -218 0 -232 22 -14 23 -126 424 -126 452 0 8 15 37 34 65 106 157 47
369 -128 456 -70 35 -160 35 -236 -1z"/>
<path d="M619 1713 c-51 -38 -99 -79 -106 -93 -17 -33 -19 -850 -2 -850 6 0
60 46 120 103 l110 102 -7 395 c-3 217 -9 399 -13 403 -4 4 -50 -23 -102 -60z"/>
<path d="M640 697 c-63 -60 -115 -114 -115 -120 0 -9 63 -12 235 -12 l235 0
27 100 c41 148 50 138 -122 139 l-145 1 -115 -108z"/>
</g>
</svg>
